PathFileType	4	(X/Y/Z)	D:\TRACE\v60_Jaco2_6-2-23\JustBodyDRS_Motion3_1-v60.trc
DataRate	CameraRate	NumFrames	NumMarkers	Units	OrigDataRate	OrigDataStartFrame	OrigNumFrames
100.00	100.00	      24	9	mm	100.00	1751	      7000
Frame#	Time	front left toe			Front right toe			aft left toe			aft right toe			Arm			FL body			FR body			AL Body			AR Body			
		X1	Y1	Z1	X2	Y2	Z2	X3	Y3	Z3	X4	Y4	Z4	X5	Y5	Z5	X6	Y6	Z6	X7	Y7	Z7	X8	Y8	Z8	X9	Y9	Z9	

1751	17.500	-157.67609	14.96513	-187.29262	216.96956	124.73801	-198.88324	-143.79361	128.70563	428.77560	227.03827	15.56447	426.24521	50.53005	1211.12390	-193.72313	-43.41903	583.62756	-325.24255	114.96018	581.10956	-326.68671	-26.44680	545.45203	618.51312	125.79025	534.40112	615.77057	
1752	17.510	-157.77654	14.89412	-187.17390	216.46883	132.04291	-198.28400	-143.61818	136.20380	429.60858	227.02084	15.49285	426.23978	50.99197	1210.87488	-193.53682	-43.95846	583.33508	-324.42538	114.89304	580.93335	-326.61188	-25.73439	545.62170	619.25415	126.09728	534.30829	616.25720	
1753	17.520	-157.73763	14.82810	-186.94193	216.84369	138.59393	-197.90550	-144.38319	142.63092	430.47110	226.97864	15.38319	426.21567	51.33295	1210.57715	-193.20998	-44.37314	583.33667	-323.72632	114.15691	580.66412	-326.04825	-25.65136	546.25354	620.34003	126.63390	534.47064	616.87805	
1754	17.530	-157.71417	14.81940	-186.78409	217.56030	143.08046	-197.37253	-145.50438	147.43140	431.46466	227.05127	15.30632	426.23898	51.04325	1210.69141	-192.81778	-44.95631	583.22601	-323.00208	113.94657	580.64130	-325.29239	-24.47734	546.71161	621.59491	127.12072	534.66296	617.46399	
1755	17.540	-157.67337	14.85158	-186.73383	218.38609	144.03026	-195.88997	-147.06624	149.40517	432.66870	227.06015	15.42513	426.24948	50.70430	1210.87268	-192.18103	-45.40271	583.34796	-322.32224	113.40369	580.64081	-324.93320	-24.09001	546.63550	622.13293	127.99934	535.07056	618.09497	
1756	17.550	-157.71358	14.90220	-186.70212	217.15430	141.73386	-194.79713	-147.80591	147.99086	435.09662	226.93321	15.36665	426.26633	50.44638	1210.96021	-191.58096	-45.86578	583.51514	-321.60168	112.72349	580.62036	-324.21280	-23.52589	547.17798	623.02612	128.32359	535.23053	618.53528	
1757	17.560	-157.75890	14.98860	-186.66197	216.49068	138.11200	-193.23430	-148.16194	145.17567	437.04614	226.92537	15.41408	426.17407	50.25803	1211.22498	-190.93120	-46.27837	583.54248	-320.71890	112.48918	580.49213	-323.60394	-23.14091	547.41174	623.55896	128.65533	535.36774	619.16174	
1758	17.570	-157.77911	14.98425	-186.49916	216.21338	133.75995	-190.83131	-148.16141	141.09207	439.98245	226.87489	15.38682	426.21756	50.26111	1211.15942	-190.32858	-46.67629	583.47882	-319.77191	111.76776	580.56866	-323.01266	-22.81475	547.50732	624.37756	129.23369	535.40253	619.92535	
1759	17.580	-157.81116	14.94004	-186.40317	215.26917	127.93113	-189.15768	-147.63139	136.04213	443.05807	226.93353	15.38765	426.30835	50.16895	1211.03345	-189.94229	-47.22776	583.67535	-319.08710	111.50088	580.31525	-322.26913	-22.45443	547.59668	625.27930	129.33282	535.44305	620.52966	
1760	17.590	-157.89577	14.83132	-186.39426	214.24390	121.14879	-187.03250	-147.60643	130.05093	445.66281	226.92427	15.27876	426.27692	50.68480	1210.65540	-189.32111	-47.66594	583.37518	-318.12222	111.12234	580.09515	-321.60745	-22.50870	547.50146	625.92822	129.80196	535.46204	621.21228	
1761	17.600	-157.91035	14.71311	-186.29124	213.84138	113.94712	-184.88841	-147.60271	122.50063	448.40414	226.98557	15.18912	426.34909	50.75501	1210.43848	-188.63625	-48.21621	583.21820	-317.44434	110.66341	579.73834	-320.76373	-21.67710	547.35071	626.83301	130.18355	535.22882	621.89264	
1762	17.610	-157.97336	14.56264	-186.23651	213.61234	105.96146	-182.79187	-148.73039	114.50499	450.68567	226.97549	15.08557	426.28967	50.65237	1210.24792	-187.94733	-48.75803	582.82507	-316.39716	109.55706	579.42358	-320.06302	-21.30620	547.33368	627.31024	130.67220	534.92914	622.54297	
1763	17.620	-157.98680	14.41106	-186.13449	213.31689	97.18323	-180.97769	-149.27852	105.25403	453.06708	227.08121	15.04515	426.31931	50.41160	1210.02429	-187.16081	-49.38018	582.70300	-315.60770	108.73266	579.02679	-319.09915	-21.29884	547.15778	628.50507	130.90958	534.66266	623.18671	
1764	17.630	-157.98964	14.27260	-186.03249	212.39763	89.01592	-179.44049	-149.86565	96.08344	455.07401	227.16556	15.00773	426.31543	50.12017	1209.75171	-186.39439	-50.01230	582.68726	-314.85904	109.07944	578.83923	-318.65073	-20.57130	547.00269	629.25720	131.52472	534.62354	624.07208	
1765	17.640	-157.97517	14.21683	-185.94481	211.34834	80.06896	-178.03047	-150.03290	86.72578	457.35327	227.30818	14.99121	426.37149	49.91561	1209.49658	-185.70107	-50.32244	582.71039	-313.81613	107.76349	578.96411	-317.59714	-20.30008	546.70117	629.99524	131.35976	534.39447	624.74304	
1766	17.650	-157.91524	14.22517	-185.92957	209.97211	71.29503	-176.62807	-150.58908	78.09499	459.14737	227.43314	14.95153	426.38043	49.84232	1209.53369	-184.65366	-50.92176	582.71881	-312.98062	108.04617	578.89911	-317.10239	-20.46547	546.49762	631.02600	131.43336	534.12158	625.44312	
1767	17.660	-157.94069	14.22413	-185.84006	209.16075	62.36419	-175.56058	-150.31427	68.78053	460.42438	227.41859	14.93739	426.40231	50.14174	1209.67456	-183.61436	-51.45222	582.86163	-312.04425	106.68070	579.06677	-316.09192	-20.34787	546.46796	631.76813	131.60663	533.86298	626.46246	
1768	17.670	-157.99850	14.16673	-185.79111	208.94154	53.66600	-174.14925	-150.61230	59.87865	461.63397	227.44949	14.89127	426.38391	50.47730	1209.68457	-182.29732	-51.92172	582.86377	-311.27219	106.39642	578.95850	-315.28308	-20.16006	546.36780	632.68866	131.49837	533.63544	627.05707	
1769	17.680	-157.98819	13.99969	-185.59338	209.09622	45.43487	-172.96078	-151.29068	51.38178	462.26700	227.35022	14.89609	426.41479	50.40509	1209.81372	-181.15746	-52.66155	582.80652	-310.32034	106.30868	578.90497	-314.52872	-20.08711	546.39990	633.62836	132.01411	533.60016	627.98663	
1770	17.690	-157.98877	13.98430	-185.48924	209.08418	37.88165	-171.74870	-151.93826	43.55727	463.18320	228.40283	15.14354	426.44662	50.40675	1209.69946	-180.26544	-52.81509	582.86212	-308.98071	105.01499	579.01611	-313.76691	-20.14013	546.13281	634.47125	132.13243	533.52405	628.56927	
1771	17.700	-157.93030	14.02433	-185.38292	208.96623	30.59316	-170.60144	-152.77840	36.73809	463.91342	228.37105	15.09288	426.48447	50.03167	1209.65625	-179.30209	-53.41060	582.82654	-308.17609	105.46590	578.95398	-312.76611	-20.29567	546.02185	635.32275	131.94829	533.27393	629.71753	
1772	17.710	-157.95827	13.93880	-185.29228	208.21301	24.05448	-170.27576	-152.47859	29.88815	464.67795	228.33398	15.07177	426.48886	49.15133	1209.68762	-178.65546	-53.98166	583.15082	-307.51810	104.15191	578.99756	-311.97809	-20.32482	545.66864	636.41156	132.01665	533.12292	630.40839	
1773	17.720	-157.95525	13.82571	-185.18025	208.07803	18.53187	-169.69775	-152.85252	23.50121	465.41223	228.26134	15.00933	426.51486	48.32924	1209.73108	-177.59398	-54.48025	583.07941	-306.35843	103.94737	578.94958	-310.80096	-20.63129	545.64941	637.30750	131.58719	532.98956	631.37769	
1774	17.730	-158.16273	13.76441	-185.12744	208.54614	16.80174	-170.01508	-153.09995	21.64516	463.85736	228.13103	14.96354	426.52075	47.82239	1209.53687	-176.58928	-54.97750	582.93842	-305.33429	103.49586	579.00360	-310.35544	-20.63910	545.56323	638.28198	131.75777	533.08398	632.23547	
